<svg xmlns="http://www.w3.org/2000/svg" xmlns:xlink="http://www.w3.org/1999/xlink" width="51" zoomAndPan="magnify" viewBox="0 0 38.25 152.999997" height="204" preserveAspectRatio="xMidYMid meet" version="1.2"><defs><clipPath id="d6b84f13ad"><path d="M 0 1.472656 L 10 1.472656 L 10 11 L 0 11 Z M 0 1.472656 "/></clipPath><clipPath id="fca24799a8"><path d="M 9 1.472656 L 15 1.472656 L 15 11 L 9 11 Z M 9 1.472656 "/></clipPath><clipPath id="59eb6072bf"><path d="M 28 1.472656 L 37.515625 1.472656 L 37.515625 11 L 28 11 Z M 28 1.472656 "/></clipPath><clipPath id="20092cd0d0"><path d="M 28 20 L 37.515625 20 L 37.515625 30 L 28 30 Z M 28 20 "/></clipPath><clipPath id="3f186b025b"><path d="M 28 48 L 37.515625 48 L 37.515625 58 L 28 58 Z M 28 48 "/></clipPath><clipPath id="f8c1c4942e"><path d="M 0 66 L 10 66 L 10 76.5 L 0 76.5 Z M 0 66 "/></clipPath><clipPath id="766409c9dd"><path d="M 18 66 L 29 66 L 29 76.5 L 18 76.5 Z M 18 66 "/></clipPath><clipPath id="5755db804b"><path d="M 28 66 L 37.515625 66 L 37.515625 76.5 L 28 76.5 Z M 28 66 "/></clipPath><clipPath id="693394cc00"><path d="M 0 75.726562 L 10 75.726562 L 10 86 L 0 86 Z M 0 75.726562 "/></clipPath><clipPath id="cebc767314"><path d="M 9 75.726562 L 15 75.726562 L 15 86 L 9 86 Z M 9 75.726562 "/></clipPath><clipPath id="5c18a96796"><path d="M 28 75.726562 L 37.515625 75.726562 L 37.515625 86 L 28 86 Z M 28 75.726562 "/></clipPath><clipPath id="8449277063"><path d="M 28 94 L 37.515625 94 L 37.515625 104 L 28 104 Z M 28 94 "/></clipPath><clipPath id="379d7ff02c"><path d="M 28 122 L 37.515625 122 L 37.515625 132 L 28 132 Z M 28 122 "/></clipPath><clipPath id="57a4ec6d15"><path d="M 0 141 L 10 141 L 10 150.757812 L 0 150.757812 Z M 0 141 "/></clipPath><clipPath id="39940196fb"><path d="M 18 141 L 29 141 L 29 150.757812 L 18 150.757812 Z M 18 141 "/></clipPath><clipPath id="01a4e5df9e"><path d="M 28 141 L 37.515625 141 L 37.515625 150.757812 L 28 150.757812 Z M 28 141 "/></clipPath></defs><g id="bcfa7252d4"><g clip-rule="nonzero" clip-path="url(#d6b84f13ad)"><path style=" stroke:none;fill-rule:nonzero;fill:#fc6f2f;fill-opacity:1;" d="M 9.386719 10.824219 C 9.386719 10.210938 9.328125 9.601562 9.207031 9 C 9.089844 8.398438 8.910156 7.8125 8.675781 7.246094 C 8.441406 6.679688 8.152344 6.140625 7.8125 5.628906 C 7.46875 5.117188 7.082031 4.644531 6.648438 4.210938 C 6.214844 3.777344 5.742188 3.390625 5.230469 3.046875 C 4.71875 2.707031 4.179688 2.417969 3.613281 2.183594 C 3.046875 1.949219 2.460938 1.769531 1.859375 1.652344 C 1.257812 1.53125 0.648438 1.472656 0.0351562 1.472656 L 0.0351562 10.824219 Z M 9.386719 10.824219 "/></g><g clip-rule="nonzero" clip-path="url(#fca24799a8)"><path style=" stroke:none;fill-rule:nonzero;fill:#1e9446;fill-opacity:1;" d="M 9.386719 10.824219 C 9.695312 10.824219 10 10.796875 10.300781 10.734375 C 10.601562 10.675781 10.894531 10.585938 11.179688 10.46875 C 11.460938 10.351562 11.730469 10.207031 11.988281 10.035156 C 12.242188 9.867188 12.476562 9.671875 12.695312 9.457031 C 12.914062 9.238281 13.105469 9 13.277344 8.746094 C 13.449219 8.492188 13.589844 8.222656 13.710938 7.9375 C 13.828125 7.652344 13.914062 7.363281 13.976562 7.0625 C 14.035156 6.757812 14.066406 6.457031 14.066406 6.148438 C 14.066406 5.839844 14.035156 5.535156 13.976562 5.234375 C 13.914062 4.933594 13.828125 4.640625 13.710938 4.359375 C 13.589844 4.074219 13.449219 3.804688 13.277344 3.550781 C 13.105469 3.292969 12.914062 3.058594 12.695312 2.839844 C 12.476562 2.625 12.242188 2.429688 11.988281 2.257812 C 11.730469 2.089844 11.460938 1.945312 11.179688 1.828125 C 10.894531 1.710938 10.601562 1.621094 10.300781 1.5625 C 10 1.5 9.695312 1.472656 9.386719 1.472656 Z M 9.386719 10.824219 "/></g><path style=" stroke:none;fill-rule:nonzero;fill:#90298e;fill-opacity:1;" d="M 9.386719 15.503906 C 9.386719 15.808594 9.359375 16.113281 9.296875 16.414062 C 9.238281 16.714844 9.148438 17.007812 9.03125 17.292969 C 8.914062 17.574219 8.769531 17.84375 8.601562 18.101562 C 8.429688 18.355469 8.234375 18.59375 8.019531 18.808594 C 7.800781 19.027344 7.566406 19.21875 7.308594 19.390625 C 7.054688 19.5625 6.785156 19.707031 6.5 19.824219 C 6.21875 19.941406 5.925781 20.027344 5.625 20.089844 C 5.324219 20.148438 5.019531 20.179688 4.710938 20.179688 C 4.402344 20.179688 4.101562 20.148438 3.796875 20.089844 C 3.496094 20.027344 3.203125 19.941406 2.921875 19.824219 C 2.636719 19.707031 2.367188 19.5625 2.113281 19.390625 C 1.855469 19.21875 1.621094 19.027344 1.402344 18.808594 C 1.1875 18.59375 0.992188 18.355469 0.824219 18.101562 C 0.652344 17.84375 0.507812 17.574219 0.390625 17.292969 C 0.273438 17.007812 0.183594 16.714844 0.125 16.414062 C 0.0625 16.113281 0.0351562 15.808594 0.0351562 15.503906 C 0.0351562 15.195312 0.0625 14.890625 0.125 14.589844 C 0.183594 14.289062 0.273438 13.996094 0.390625 13.710938 C 0.507812 13.429688 0.652344 13.160156 0.824219 12.902344 C 0.992188 12.648438 1.1875 12.410156 1.402344 12.195312 C 1.621094 11.976562 1.855469 11.785156 2.113281 11.613281 C 2.367188 11.441406 2.636719 11.296875 2.921875 11.179688 C 3.203125 11.0625 3.496094 10.976562 3.796875 10.914062 C 4.101562 10.855469 4.402344 10.824219 4.710938 10.824219 L 9.386719 10.824219 Z M 9.386719 15.503906 "/><g clip-rule="nonzero" clip-path="url(#59eb6072bf)"><path style=" stroke:none;fill-rule:nonzero;fill:#fc6f2f;fill-opacity:1;" d="M 28.097656 6.148438 C 28.097656 5.839844 28.125 5.535156 28.1875 5.234375 C 28.246094 4.933594 28.335938 4.640625 28.453125 4.359375 C 28.570312 4.074219 28.714844 3.804688 28.882812 3.550781 C 29.054688 3.292969 29.25 3.058594 29.464844 2.839844 C 29.683594 2.625 29.917969 2.429688 30.175781 2.257812 C 30.429688 2.089844 30.699219 1.945312 30.984375 1.828125 C 31.265625 1.710938 31.558594 1.621094 31.859375 1.5625 C 32.160156 1.5 32.464844 1.472656 32.773438 1.472656 L 37.449219 1.472656 L 37.449219 10.824219 L 32.773438 10.824219 C 32.464844 10.824219 32.160156 10.796875 31.859375 10.734375 C 31.558594 10.675781 31.265625 10.585938 30.984375 10.46875 C 30.699219 10.351562 30.429688 10.207031 30.175781 10.035156 C 29.917969 9.867188 29.683594 9.671875 29.464844 9.457031 C 29.25 9.238281 29.054688 9 28.882812 8.746094 C 28.714844 8.492188 28.570312 8.222656 28.453125 7.9375 C 28.335938 7.652344 28.246094 7.363281 28.1875 7.0625 C 28.125 6.757812 28.097656 6.457031 28.097656 6.148438 Z M 28.097656 6.148438 "/></g><path style=" stroke:none;fill-rule:nonzero;fill:#90298e;fill-opacity:1;" d="M 23.425781 20.179688 C 23.117188 20.179688 22.8125 20.148438 22.511719 20.089844 C 22.210938 20.027344 21.917969 19.941406 21.636719 19.824219 C 21.351562 19.707031 21.082031 19.5625 20.828125 19.390625 C 20.570312 19.21875 20.335938 19.027344 20.117188 18.808594 C 19.902344 18.59375 19.707031 18.355469 19.535156 18.101562 C 19.367188 17.84375 19.222656 17.574219 19.105469 17.292969 C 18.988281 17.007812 18.898438 16.714844 18.839844 16.414062 C 18.777344 16.113281 18.75 15.808594 18.75 15.503906 C 18.75 15.195312 18.777344 14.890625 18.839844 14.589844 C 18.898438 14.289062 18.988281 13.996094 19.105469 13.710938 C 19.222656 13.429688 19.367188 13.160156 19.535156 12.902344 C 19.707031 12.648438 19.902344 12.410156 20.117188 12.195312 C 20.335938 11.976562 20.570312 11.785156 20.828125 11.613281 C 21.082031 11.441406 21.351562 11.296875 21.636719 11.179688 C 21.917969 11.0625 22.210938 10.976562 22.511719 10.914062 C 22.8125 10.855469 23.117188 10.824219 23.425781 10.824219 C 23.734375 10.824219 24.035156 10.855469 24.335938 10.914062 C 24.640625 10.976562 24.929688 11.0625 25.214844 11.179688 C 25.5 11.296875 25.769531 11.441406 26.023438 11.613281 C 26.277344 11.785156 26.515625 11.976562 26.734375 12.195312 C 26.949219 12.410156 27.144531 12.648438 27.3125 12.902344 C 27.484375 13.160156 27.628906 13.429688 27.746094 13.710938 C 27.863281 13.996094 27.953125 14.289062 28.011719 14.589844 C 28.074219 14.890625 28.101562 15.195312 28.101562 15.503906 L 28.101562 20.179688 Z M 23.425781 20.179688 "/><path style=" stroke:none;fill-rule:nonzero;fill:#fc6f2f;fill-opacity:1;" d="M 14.066406 29.53125 C 13.757812 29.53125 13.453125 29.503906 13.152344 29.441406 C 12.851562 29.382812 12.558594 29.296875 12.277344 29.175781 C 11.992188 29.058594 11.722656 28.917969 11.46875 28.746094 C 11.214844 28.574219 10.976562 28.382812 10.761719 28.164062 C 10.542969 27.949219 10.347656 27.710938 10.179688 27.457031 C 10.007812 27.203125 9.863281 26.933594 9.746094 26.648438 C 9.628906 26.367188 9.539062 26.074219 9.480469 25.773438 C 9.417969 25.472656 9.386719 25.167969 9.386719 24.863281 L 9.386719 20.179688 L 18.742188 20.179688 L 18.742188 24.863281 C 18.742188 25.167969 18.710938 25.472656 18.652344 25.773438 C 18.589844 26.074219 18.5 26.367188 18.382812 26.648438 C 18.265625 26.933594 18.121094 27.203125 17.953125 27.457031 C 17.78125 27.710938 17.585938 27.949219 17.371094 28.164062 C 17.152344 28.382812 16.917969 28.574219 16.660156 28.746094 C 16.40625 28.917969 16.136719 29.058594 15.851562 29.175781 C 15.570312 29.296875 15.277344 29.382812 14.976562 29.441406 C 14.675781 29.503906 14.371094 29.53125 14.066406 29.53125 Z M 14.066406 29.53125 "/><path style=" stroke:none;fill-rule:nonzero;fill:#1e9446;fill-opacity:1;" d="M 0.0351562 29.53125 C 0.0351562 29.839844 0.0625 30.144531 0.125 30.445312 C 0.183594 30.746094 0.273438 31.039062 0.390625 31.324219 C 0.507812 31.605469 0.652344 31.875 0.824219 32.132812 C 0.992188 32.386719 1.1875 32.621094 1.402344 32.839844 C 1.621094 33.058594 1.855469 33.25 2.113281 33.421875 C 2.367188 33.59375 2.636719 33.738281 2.921875 33.855469 C 3.203125 33.972656 3.496094 34.058594 3.796875 34.121094 C 4.101562 34.179688 4.402344 34.210938 4.710938 34.210938 C 5.019531 34.210938 5.324219 34.179688 5.625 34.121094 C 5.925781 34.058594 6.21875 33.972656 6.5 33.855469 C 6.785156 33.738281 7.054688 33.59375 7.308594 33.421875 C 7.566406 33.25 7.800781 33.058594 8.019531 32.839844 C 8.234375 32.621094 8.429688 32.386719 8.601562 32.132812 C 8.769531 31.875 8.914062 31.605469 9.03125 31.324219 C 9.148438 31.039062 9.238281 30.746094 9.296875 30.445312 C 9.359375 30.144531 9.386719 29.839844 9.386719 29.53125 Z M 0.0351562 29.53125 "/><path style=" stroke:none;fill-rule:nonzero;fill:#fc6f2f;fill-opacity:1;" d="M 18.742188 24.863281 C 18.742188 24.554688 18.769531 24.25 18.832031 23.949219 C 18.890625 23.648438 18.980469 23.355469 19.097656 23.070312 C 19.214844 22.785156 19.359375 22.515625 19.527344 22.257812 C 19.699219 22.003906 19.894531 21.765625 20.113281 21.550781 C 20.328125 21.332031 20.566406 21.136719 20.820312 20.964844 C 21.078125 20.796875 21.347656 20.652344 21.632812 20.535156 C 21.917969 20.417969 22.210938 20.328125 22.511719 20.269531 C 22.8125 20.207031 23.117188 20.179688 23.425781 20.179688 L 28.101562 20.179688 L 28.101562 29.53125 L 23.425781 29.53125 C 23.117188 29.535156 22.8125 29.503906 22.511719 29.445312 C 22.210938 29.386719 21.917969 29.296875 21.636719 29.179688 C 21.351562 29.0625 21.082031 28.917969 20.824219 28.75 C 20.570312 28.578125 20.332031 28.382812 20.117188 28.167969 C 19.898438 27.949219 19.703125 27.714844 19.535156 27.460938 C 19.363281 27.203125 19.21875 26.933594 19.101562 26.652344 C 18.984375 26.367188 18.894531 26.074219 18.832031 25.773438 C 18.773438 25.472656 18.742188 25.167969 18.742188 24.863281 Z M 18.742188 24.863281 "/><g clip-rule="nonzero" clip-path="url(#20092cd0d0)"><path style=" stroke:none;fill-rule:nonzero;fill:#fc6f2f;fill-opacity:1;" d="M 28.097656 24.863281 C 28.097656 24.554688 28.125 24.25 28.1875 23.949219 C 28.246094 23.648438 28.335938 23.355469 28.453125 23.074219 C 28.570312 22.789062 28.714844 22.519531 28.882812 22.265625 C 29.054688 22.007812 29.25 21.773438 29.464844 21.554688 C 29.683594 21.339844 29.917969 21.144531 30.175781 20.972656 C 30.429688 20.804688 30.699219 20.660156 30.984375 20.542969 C 31.265625 20.425781 31.558594 20.335938 31.859375 20.273438 C 32.160156 20.214844 32.464844 20.183594 32.773438 20.183594 L 37.449219 20.183594 L 37.449219 29.539062 L 32.773438 29.539062 C 32.464844 29.539062 32.160156 29.507812 31.859375 29.449219 C 31.558594 29.390625 31.265625 29.300781 30.984375 29.183594 C 30.699219 29.066406 30.429688 28.921875 30.175781 28.75 C 29.917969 28.582031 29.683594 28.386719 29.464844 28.167969 C 29.25 27.953125 29.054688 27.714844 28.882812 27.460938 C 28.714844 27.207031 28.570312 26.9375 28.453125 26.652344 C 28.335938 26.367188 28.246094 26.074219 28.1875 25.773438 C 28.125 25.472656 28.097656 25.167969 28.097656 24.863281 Z M 28.097656 24.863281 "/></g><path style=" stroke:none;fill-rule:nonzero;fill:#1e9446;fill-opacity:1;" d="M 28.097656 29.53125 C 27.789062 29.535156 27.484375 29.5625 27.183594 29.625 C 26.882812 29.683594 26.589844 29.773438 26.308594 29.890625 C 26.023438 30.007812 25.753906 30.152344 25.5 30.324219 C 25.242188 30.492188 25.007812 30.6875 24.789062 30.902344 C 24.574219 31.121094 24.378906 31.355469 24.210938 31.613281 C 24.039062 31.867188 23.894531 32.136719 23.777344 32.421875 C 23.660156 32.703125 23.570312 32.996094 23.511719 33.296875 C 23.453125 33.597656 23.421875 33.902344 23.421875 34.210938 C 23.421875 34.515625 23.453125 34.820312 23.511719 35.121094 C 23.570312 35.421875 23.660156 35.714844 23.777344 36 C 23.894531 36.28125 24.039062 36.550781 24.210938 36.808594 C 24.378906 37.0625 24.574219 37.300781 24.789062 37.515625 C 25.007812 37.734375 25.242188 37.925781 25.5 38.097656 C 25.753906 38.269531 26.023438 38.414062 26.308594 38.53125 C 26.589844 38.648438 26.882812 38.738281 27.183594 38.796875 C 27.484375 38.855469 27.789062 38.886719 28.097656 38.886719 Z M 28.097656 29.53125 "/><path style=" stroke:none;fill-rule:nonzero;fill:#fc6f2f;fill-opacity:1;" d="M 0.0351562 43.5625 C 0.0351562 43.257812 0.0625 42.953125 0.125 42.652344 C 0.183594 42.351562 0.273438 42.058594 0.390625 41.773438 C 0.507812 41.492188 0.652344 41.222656 0.824219 40.964844 C 0.992188 40.710938 1.1875 40.472656 1.402344 40.257812 C 1.621094 40.039062 1.855469 39.847656 2.113281 39.675781 C 2.367188 39.503906 2.636719 39.359375 2.921875 39.242188 C 3.203125 39.125 3.496094 39.035156 3.796875 38.976562 C 4.101562 38.917969 4.402344 38.886719 4.710938 38.886719 L 9.386719 38.886719 L 9.386719 48.242188 L 4.710938 48.242188 C 4.402344 48.242188 4.101562 48.210938 3.796875 48.152344 C 3.496094 48.089844 3.203125 48.003906 2.921875 47.886719 C 2.636719 47.765625 2.367188 47.625 2.113281 47.453125 C 1.855469 47.28125 1.621094 47.089844 1.402344 46.871094 C 1.1875 46.652344 0.992188 46.417969 0.824219 46.164062 C 0.652344 45.90625 0.507812 45.636719 0.390625 45.355469 C 0.273438 45.070312 0.183594 44.777344 0.125 44.476562 C 0.0625 44.175781 0.0351562 43.871094 0.0351562 43.5625 Z M 0.0351562 43.5625 "/><path style=" stroke:none;fill-rule:nonzero;fill:#90298e;fill-opacity:1;" d="M 4.710938 57.59375 C 4.402344 57.59375 4.101562 57.566406 3.796875 57.503906 C 3.496094 57.445312 3.203125 57.355469 2.921875 57.238281 C 2.636719 57.121094 2.367188 56.976562 2.113281 56.808594 C 1.855469 56.636719 1.621094 56.441406 1.402344 56.226562 C 1.1875 56.007812 0.992188 55.773438 0.824219 55.515625 C 0.652344 55.261719 0.507812 54.992188 0.390625 54.707031 C 0.273438 54.425781 0.183594 54.132812 0.125 53.832031 C 0.0625 53.527344 0.0351562 53.226562 0.0351562 52.917969 C 0.0351562 52.609375 0.0625 52.308594 0.125 52.003906 C 0.183594 51.703125 0.273438 51.410156 0.390625 51.128906 C 0.507812 50.84375 0.652344 50.574219 0.824219 50.320312 C 0.992188 50.0625 1.1875 49.828125 1.402344 49.609375 C 1.621094 49.394531 1.855469 49.199219 2.113281 49.027344 C 2.367188 48.859375 2.636719 48.714844 2.921875 48.597656 C 3.203125 48.480469 3.496094 48.390625 3.796875 48.332031 C 4.101562 48.269531 4.402344 48.242188 4.710938 48.242188 C 5.019531 48.242188 5.324219 48.269531 5.625 48.332031 C 5.925781 48.390625 6.21875 48.480469 6.5 48.597656 C 6.785156 48.714844 7.054688 48.859375 7.308594 49.027344 C 7.566406 49.199219 7.800781 49.394531 8.019531 49.609375 C 8.234375 49.828125 8.429688 50.0625 8.601562 50.320312 C 8.769531 50.574219 8.914062 50.84375 9.03125 51.128906 C 9.148438 51.410156 9.238281 51.703125 9.296875 52.003906 C 9.359375 52.308594 9.386719 52.609375 9.386719 52.917969 L 9.386719 57.59375 Z M 4.710938 57.59375 "/><path style=" stroke:none;fill-rule:nonzero;fill:#fc6f2f;fill-opacity:1;" d="M 23.425781 48.242188 C 23.117188 48.242188 22.8125 48.210938 22.511719 48.152344 C 22.210938 48.089844 21.917969 48.003906 21.636719 47.886719 C 21.351562 47.765625 21.082031 47.625 20.828125 47.453125 C 20.570312 47.28125 20.335938 47.089844 20.117188 46.871094 C 19.902344 46.652344 19.707031 46.417969 19.535156 46.164062 C 19.367188 45.90625 19.222656 45.636719 19.105469 45.355469 C 18.988281 45.070312 18.898438 44.777344 18.839844 44.476562 C 18.777344 44.175781 18.75 43.871094 18.75 43.5625 L 18.75 38.886719 L 28.101562 38.886719 L 28.101562 43.5625 C 28.101562 43.871094 28.074219 44.175781 28.011719 44.476562 C 27.953125 44.777344 27.863281 45.070312 27.746094 45.355469 C 27.628906 45.636719 27.484375 45.90625 27.3125 46.164062 C 27.144531 46.417969 26.949219 46.652344 26.734375 46.871094 C 26.515625 47.089844 26.277344 47.28125 26.023438 47.453125 C 25.769531 47.625 25.5 47.765625 25.214844 47.886719 C 24.929688 48.003906 24.640625 48.089844 24.335938 48.152344 C 24.035156 48.210938 23.734375 48.242188 23.425781 48.242188 Z M 23.425781 48.242188 "/><path style=" stroke:none;fill-rule:nonzero;fill:#1e9446;fill-opacity:1;" d="M 18.742188 48.242188 C 18.742188 48.546875 18.773438 48.851562 18.832031 49.152344 C 18.890625 49.453125 18.980469 49.746094 19.097656 50.03125 C 19.214844 50.3125 19.359375 50.582031 19.53125 50.839844 C 19.699219 51.09375 19.894531 51.332031 20.113281 51.546875 C 20.328125 51.765625 20.566406 51.960938 20.820312 52.128906 C 21.074219 52.300781 21.34375 52.445312 21.628906 52.5625 C 21.914062 52.679688 22.207031 52.769531 22.507812 52.828125 C 22.808594 52.886719 23.113281 52.917969 23.417969 52.917969 C 23.726562 52.917969 24.03125 52.886719 24.332031 52.828125 C 24.632812 52.769531 24.925781 52.679688 25.207031 52.5625 C 25.492188 52.445312 25.761719 52.300781 26.015625 52.128906 C 26.273438 51.960938 26.507812 51.765625 26.726562 51.546875 C 26.941406 51.332031 27.136719 51.09375 27.308594 50.839844 C 27.476562 50.582031 27.621094 50.3125 27.738281 50.03125 C 27.859375 49.746094 27.945312 49.453125 28.007812 49.152344 C 28.066406 48.851562 28.097656 48.546875 28.097656 48.242188 Z M 18.742188 48.242188 "/><g clip-rule="nonzero" clip-path="url(#3f186b025b)"><path style=" stroke:none;fill-rule:nonzero;fill:#fc6f2f;fill-opacity:1;" d="M 28.097656 57.59375 C 28.710938 57.59375 29.316406 57.535156 29.921875 57.414062 C 30.523438 57.296875 31.109375 57.117188 31.675781 56.882812 C 32.242188 56.648438 32.78125 56.359375 33.292969 56.019531 C 33.804688 55.675781 34.277344 55.289062 34.710938 54.855469 C 35.144531 54.421875 35.53125 53.949219 35.875 53.4375 C 36.214844 52.925781 36.503906 52.386719 36.738281 51.820312 C 36.972656 51.253906 37.148438 50.667969 37.269531 50.066406 C 37.390625 49.464844 37.449219 48.855469 37.449219 48.242188 L 28.097656 48.242188 Z M 28.097656 57.59375 "/></g><path style=" stroke:none;fill-rule:nonzero;fill:#fc6f2f;fill-opacity:1;" d="M 9.386719 62.273438 C 9.386719 62.578125 9.359375 62.882812 9.296875 63.183594 C 9.238281 63.484375 9.148438 63.777344 9.03125 64.0625 C 8.914062 64.34375 8.769531 64.613281 8.601562 64.871094 C 8.429688 65.125 8.234375 65.363281 8.019531 65.578125 C 7.800781 65.796875 7.566406 65.988281 7.308594 66.160156 C 7.054688 66.332031 6.785156 66.476562 6.5 66.59375 C 6.21875 66.710938 5.925781 66.800781 5.625 66.859375 C 5.324219 66.917969 5.019531 66.949219 4.710938 66.949219 L 0.0351562 66.949219 L 0.0351562 57.59375 L 4.710938 57.59375 C 5.019531 57.59375 5.324219 57.625 5.625 57.683594 C 5.925781 57.746094 6.21875 57.832031 6.5 57.949219 C 6.785156 58.070312 7.054688 58.210938 7.308594 58.382812 C 7.566406 58.554688 7.800781 58.746094 8.019531 58.964844 C 8.234375 59.183594 8.429688 59.417969 8.601562 59.671875 C 8.769531 59.929688 8.914062 60.199219 9.03125 60.480469 C 9.148438 60.765625 9.238281 61.058594 9.296875 61.359375 C 9.359375 61.660156 9.386719 61.964844 9.386719 62.273438 Z M 9.386719 62.273438 "/><path style=" stroke:none;fill-rule:nonzero;fill:#fc6f2f;fill-opacity:1;" d="M 18.742188 62.273438 C 18.742188 62.578125 18.710938 62.882812 18.652344 63.183594 C 18.59375 63.484375 18.503906 63.777344 18.386719 64.0625 C 18.269531 64.34375 18.125 64.613281 17.953125 64.871094 C 17.78125 65.125 17.589844 65.363281 17.371094 65.578125 C 17.15625 65.796875 16.917969 65.988281 16.664062 66.160156 C 16.40625 66.332031 16.136719 66.476562 15.855469 66.59375 C 15.570312 66.710938 15.277344 66.800781 14.976562 66.859375 C 14.675781 66.917969 14.371094 66.949219 14.066406 66.949219 L 9.386719 66.949219 L 9.386719 57.59375 L 14.066406 57.59375 C 14.371094 57.59375 14.675781 57.625 14.976562 57.683594 C 15.277344 57.746094 15.570312 57.832031 15.855469 57.949219 C 16.136719 58.070312 16.40625 58.210938 16.664062 58.382812 C 16.917969 58.554688 17.15625 58.746094 17.371094 58.964844 C 17.589844 59.183594 17.78125 59.417969 17.953125 59.671875 C 18.125 59.929688 18.269531 60.199219 18.386719 60.480469 C 18.503906 60.765625 18.59375 61.058594 18.652344 61.359375 C 18.710938 61.660156 18.742188 61.964844 18.742188 62.273438 Z M 18.742188 62.273438 "/><g clip-rule="nonzero" clip-path="url(#f8c1c4942e)"><path style=" stroke:none;fill-rule:nonzero;fill:#90298e;fill-opacity:1;" d="M 4.710938 76.296875 C 4.402344 76.296875 4.101562 76.269531 3.796875 76.207031 C 3.496094 76.148438 3.203125 76.058594 2.921875 75.941406 C 2.636719 75.824219 2.367188 75.679688 2.113281 75.507812 C 1.855469 75.339844 1.621094 75.144531 1.402344 74.929688 C 1.1875 74.710938 0.992188 74.472656 0.824219 74.21875 C 0.652344 73.964844 0.507812 73.695312 0.390625 73.410156 C 0.273438 73.125 0.183594 72.835938 0.125 72.53125 C 0.0625 72.230469 0.0351562 71.925781 0.0351562 71.621094 C 0.0351562 71.3125 0.0625 71.007812 0.125 70.707031 C 0.183594 70.40625 0.273438 70.113281 0.390625 69.832031 C 0.507812 69.546875 0.652344 69.277344 0.824219 69.023438 C 0.992188 68.765625 1.1875 68.53125 1.402344 68.3125 C 1.621094 68.097656 1.855469 67.902344 2.113281 67.730469 C 2.367188 67.5625 2.636719 67.417969 2.921875 67.300781 C 3.203125 67.183594 3.496094 67.09375 3.796875 67.035156 C 4.101562 66.972656 4.402344 66.945312 4.710938 66.945312 C 5.019531 66.945312 5.324219 66.972656 5.625 67.035156 C 5.925781 67.09375 6.21875 67.183594 6.5 67.300781 C 6.785156 67.417969 7.054688 67.5625 7.308594 67.730469 C 7.566406 67.902344 7.800781 68.097656 8.019531 68.3125 C 8.234375 68.53125 8.429688 68.765625 8.601562 69.023438 C 8.769531 69.277344 8.914062 69.546875 9.03125 69.832031 C 9.148438 70.113281 9.238281 70.40625 9.296875 70.707031 C 9.359375 71.007812 9.386719 71.3125 9.386719 71.621094 L 9.386719 76.296875 Z M 4.710938 76.296875 "/></g><g clip-rule="nonzero" clip-path="url(#766409c9dd)"><path style=" stroke:none;fill-rule:nonzero;fill:#90298e;fill-opacity:1;" d="M 28.097656 71.625 C 28.097656 71.933594 28.066406 72.238281 28.007812 72.539062 C 27.945312 72.839844 27.855469 73.132812 27.738281 73.417969 C 27.621094 73.699219 27.476562 73.96875 27.308594 74.226562 C 27.136719 74.480469 26.941406 74.714844 26.726562 74.933594 C 26.507812 75.152344 26.273438 75.34375 26.015625 75.515625 C 25.761719 75.6875 25.492188 75.828125 25.207031 75.949219 C 24.921875 76.066406 24.628906 76.152344 24.328125 76.214844 C 24.027344 76.273438 23.722656 76.304688 23.417969 76.304688 C 23.109375 76.300781 22.804688 76.273438 22.503906 76.210938 C 22.203125 76.152344 21.910156 76.0625 21.625 75.945312 C 21.34375 75.828125 21.074219 75.683594 20.816406 75.511719 C 20.5625 75.34375 20.328125 75.148438 20.109375 74.929688 C 19.890625 74.714844 19.699219 74.476562 19.527344 74.222656 C 19.359375 73.964844 19.214844 73.695312 19.097656 73.414062 C 18.980469 73.128906 18.890625 72.835938 18.832031 72.535156 C 18.769531 72.234375 18.742188 71.929688 18.742188 71.621094 C 18.742188 71.3125 18.773438 71.011719 18.832031 70.707031 C 18.894531 70.40625 18.980469 70.113281 19.101562 69.832031 C 19.21875 69.546875 19.363281 69.277344 19.53125 69.023438 C 19.703125 68.769531 19.898438 68.53125 20.117188 68.316406 C 20.332031 68.097656 20.570312 67.902344 20.824219 67.734375 C 21.082031 67.5625 21.351562 67.417969 21.632812 67.300781 C 21.917969 67.183594 22.210938 67.097656 22.511719 67.039062 C 22.8125 66.976562 23.117188 66.949219 23.425781 66.949219 L 28.101562 66.949219 Z M 28.097656 71.625 "/></g><g clip-rule="nonzero" clip-path="url(#5755db804b)"><path style=" stroke:none;fill-rule:nonzero;fill:#fc6f2f;fill-opacity:1;" d="M 28.097656 66.949219 C 28.097656 67.5625 28.15625 68.171875 28.277344 68.773438 C 28.398438 69.375 28.574219 69.960938 28.808594 70.527344 C 29.046875 71.09375 29.332031 71.632812 29.675781 72.144531 C 30.015625 72.652344 30.402344 73.125 30.835938 73.558594 C 31.273438 73.992188 31.746094 74.382812 32.253906 74.722656 C 32.765625 75.0625 33.304688 75.351562 33.871094 75.585938 C 34.4375 75.820312 35.023438 75.996094 35.625 76.117188 C 36.226562 76.238281 36.835938 76.296875 37.449219 76.296875 L 37.449219 66.949219 Z M 28.097656 66.949219 "/></g><g clip-rule="nonzero" clip-path="url(#693394cc00)"><path style=" stroke:none;fill-rule:nonzero;fill:#fc6f2f;fill-opacity:1;" d="M 9.386719 85.082031 C 9.386719 84.46875 9.328125 83.859375 9.207031 83.257812 C 9.089844 82.652344 8.910156 82.070312 8.675781 81.5 C 8.441406 80.933594 8.152344 80.394531 7.8125 79.882812 C 7.46875 79.375 7.082031 78.902344 6.648438 78.46875 C 6.214844 78.03125 5.742188 77.644531 5.230469 77.304688 C 4.71875 76.960938 4.179688 76.675781 3.613281 76.441406 C 3.046875 76.203125 2.460938 76.027344 1.859375 75.90625 C 1.257812 75.789062 0.648438 75.726562 0.0351562 75.726562 L 0.0351562 85.082031 Z M 9.386719 85.082031 "/></g><g clip-rule="nonzero" clip-path="url(#cebc767314)"><path style=" stroke:none;fill-rule:nonzero;fill:#1e9446;fill-opacity:1;" d="M 9.386719 85.082031 C 9.695312 85.082031 10 85.050781 10.300781 84.992188 C 10.601562 84.929688 10.894531 84.84375 11.179688 84.726562 C 11.460938 84.609375 11.730469 84.464844 11.988281 84.292969 C 12.242188 84.121094 12.476562 83.929688 12.695312 83.710938 C 12.914062 83.492188 13.105469 83.257812 13.277344 83.003906 C 13.449219 82.746094 13.589844 82.476562 13.710938 82.195312 C 13.828125 81.910156 13.914062 81.617188 13.976562 81.316406 C 14.035156 81.015625 14.066406 80.710938 14.066406 80.402344 C 14.066406 80.097656 14.035156 79.792969 13.976562 79.492188 C 13.914062 79.191406 13.828125 78.898438 13.710938 78.613281 C 13.589844 78.332031 13.449219 78.0625 13.277344 77.804688 C 13.105469 77.550781 12.914062 77.3125 12.695312 77.097656 C 12.476562 76.878906 12.242188 76.6875 11.988281 76.515625 C 11.730469 76.34375 11.460938 76.199219 11.179688 76.082031 C 10.894531 75.964844 10.601562 75.875 10.300781 75.816406 C 10 75.757812 9.695312 75.726562 9.386719 75.726562 Z M 9.386719 85.082031 "/></g><path style=" stroke:none;fill-rule:nonzero;fill:#90298e;fill-opacity:1;" d="M 9.386719 89.757812 C 9.386719 90.066406 9.359375 90.371094 9.296875 90.671875 C 9.238281 90.972656 9.148438 91.265625 9.03125 91.546875 C 8.914062 91.832031 8.769531 92.101562 8.601562 92.355469 C 8.429688 92.613281 8.234375 92.847656 8.019531 93.066406 C 7.800781 93.28125 7.566406 93.476562 7.308594 93.648438 C 7.054688 93.816406 6.785156 93.960938 6.5 94.078125 C 6.21875 94.195312 5.925781 94.285156 5.625 94.34375 C 5.324219 94.40625 5.019531 94.433594 4.710938 94.433594 C 4.402344 94.433594 4.101562 94.40625 3.796875 94.34375 C 3.496094 94.285156 3.203125 94.195312 2.921875 94.078125 C 2.636719 93.960938 2.367188 93.816406 2.113281 93.648438 C 1.855469 93.476562 1.621094 93.28125 1.402344 93.066406 C 1.1875 92.847656 0.992188 92.613281 0.824219 92.355469 C 0.652344 92.101562 0.507812 91.832031 0.390625 91.546875 C 0.273438 91.265625 0.183594 90.972656 0.125 90.671875 C 0.0625 90.371094 0.0351562 90.066406 0.0351562 89.757812 C 0.0351562 89.449219 0.0625 89.148438 0.125 88.84375 C 0.183594 88.542969 0.273438 88.253906 0.390625 87.96875 C 0.507812 87.683594 0.652344 87.414062 0.824219 87.160156 C 0.992188 86.90625 1.1875 86.667969 1.402344 86.449219 C 1.621094 86.234375 1.855469 86.039062 2.113281 85.871094 C 2.367188 85.699219 2.636719 85.554688 2.921875 85.4375 C 3.203125 85.320312 3.496094 85.230469 3.796875 85.171875 C 4.101562 85.109375 4.402344 85.082031 4.710938 85.082031 L 9.386719 85.082031 Z M 9.386719 89.757812 "/><g clip-rule="nonzero" clip-path="url(#5c18a96796)"><path style=" stroke:none;fill-rule:nonzero;fill:#fc6f2f;fill-opacity:1;" d="M 28.097656 80.402344 C 28.097656 80.097656 28.125 79.792969 28.1875 79.492188 C 28.246094 79.191406 28.335938 78.898438 28.453125 78.613281 C 28.570312 78.332031 28.714844 78.0625 28.882812 77.804688 C 29.054688 77.550781 29.25 77.3125 29.464844 77.097656 C 29.683594 76.878906 29.917969 76.6875 30.175781 76.515625 C 30.429688 76.34375 30.699219 76.199219 30.984375 76.082031 C 31.265625 75.964844 31.558594 75.875 31.859375 75.816406 C 32.160156 75.757812 32.464844 75.726562 32.773438 75.726562 L 37.449219 75.726562 L 37.449219 85.082031 L 32.773438 85.082031 C 32.464844 85.082031 32.160156 85.050781 31.859375 84.992188 C 31.558594 84.929688 31.265625 84.84375 30.984375 84.726562 C 30.699219 84.609375 30.429688 84.464844 30.175781 84.292969 C 29.917969 84.121094 29.683594 83.929688 29.464844 83.710938 C 29.25 83.492188 29.054688 83.257812 28.882812 83.003906 C 28.714844 82.746094 28.570312 82.476562 28.453125 82.195312 C 28.335938 81.910156 28.246094 81.617188 28.1875 81.316406 C 28.125 81.015625 28.097656 80.710938 28.097656 80.402344 Z M 28.097656 80.402344 "/></g><path style=" stroke:none;fill-rule:nonzero;fill:#90298e;fill-opacity:1;" d="M 23.425781 94.433594 C 23.117188 94.433594 22.8125 94.40625 22.511719 94.34375 C 22.210938 94.285156 21.917969 94.195312 21.636719 94.078125 C 21.351562 93.960938 21.082031 93.816406 20.828125 93.648438 C 20.570312 93.476562 20.335938 93.28125 20.117188 93.066406 C 19.902344 92.847656 19.707031 92.613281 19.535156 92.355469 C 19.367188 92.101562 19.222656 91.832031 19.105469 91.546875 C 18.988281 91.265625 18.898438 90.972656 18.839844 90.671875 C 18.777344 90.371094 18.75 90.066406 18.75 89.757812 C 18.75 89.449219 18.777344 89.148438 18.839844 88.84375 C 18.898438 88.542969 18.988281 88.253906 19.105469 87.96875 C 19.222656 87.683594 19.367188 87.414062 19.535156 87.160156 C 19.707031 86.90625 19.902344 86.667969 20.117188 86.449219 C 20.335938 86.234375 20.570312 86.039062 20.828125 85.871094 C 21.082031 85.699219 21.351562 85.554688 21.636719 85.4375 C 21.917969 85.320312 22.210938 85.230469 22.511719 85.171875 C 22.8125 85.109375 23.117188 85.082031 23.425781 85.082031 C 23.734375 85.082031 24.035156 85.109375 24.335938 85.171875 C 24.640625 85.230469 24.929688 85.320312 25.214844 85.4375 C 25.5 85.554688 25.769531 85.699219 26.023438 85.871094 C 26.277344 86.039062 26.515625 86.234375 26.734375 86.449219 C 26.949219 86.667969 27.144531 86.90625 27.3125 87.160156 C 27.484375 87.414062 27.628906 87.683594 27.746094 87.96875 C 27.863281 88.253906 27.953125 88.542969 28.011719 88.84375 C 28.074219 89.148438 28.101562 89.449219 28.101562 89.757812 L 28.101562 94.433594 Z M 23.425781 94.433594 "/><path style=" stroke:none;fill-rule:nonzero;fill:#fc6f2f;fill-opacity:1;" d="M 14.066406 103.789062 C 13.757812 103.789062 13.453125 103.757812 13.152344 103.699219 C 12.851562 103.640625 12.558594 103.550781 12.277344 103.433594 C 11.992188 103.316406 11.722656 103.171875 11.46875 103.003906 C 11.214844 102.832031 10.976562 102.636719 10.761719 102.421875 C 10.542969 102.203125 10.347656 101.96875 10.179688 101.714844 C 10.007812 101.457031 9.863281 101.191406 9.746094 100.90625 C 9.628906 100.621094 9.539062 100.332031 9.480469 100.03125 C 9.417969 99.730469 9.386719 99.425781 9.386719 99.117188 L 9.386719 94.433594 L 18.742188 94.433594 L 18.742188 99.117188 C 18.742188 99.425781 18.710938 99.730469 18.652344 100.03125 C 18.589844 100.332031 18.5 100.621094 18.382812 100.90625 C 18.265625 101.191406 18.121094 101.457031 17.953125 101.714844 C 17.78125 101.96875 17.585938 102.203125 17.371094 102.421875 C 17.152344 102.636719 16.917969 102.832031 16.660156 103.003906 C 16.40625 103.171875 16.136719 103.316406 15.851562 103.433594 C 15.570312 103.550781 15.277344 103.640625 14.976562 103.699219 C 14.675781 103.757812 14.371094 103.789062 14.066406 103.789062 Z M 14.066406 103.789062 "/><path style=" stroke:none;fill-rule:nonzero;fill:#1e9446;fill-opacity:1;" d="M 0.0351562 103.789062 C 0.0351562 104.097656 0.0625 104.398438 0.125 104.703125 C 0.183594 105.003906 0.273438 105.296875 0.390625 105.578125 C 0.507812 105.863281 0.652344 106.132812 0.824219 106.386719 C 0.992188 106.644531 1.1875 106.878906 1.402344 107.097656 C 1.621094 107.3125 1.855469 107.507812 2.113281 107.679688 C 2.367188 107.847656 2.636719 107.992188 2.921875 108.109375 C 3.203125 108.226562 3.496094 108.316406 3.796875 108.375 C 4.101562 108.4375 4.402344 108.464844 4.710938 108.464844 C 5.019531 108.464844 5.324219 108.4375 5.625 108.375 C 5.925781 108.316406 6.21875 108.226562 6.5 108.109375 C 6.785156 107.992188 7.054688 107.847656 7.308594 107.679688 C 7.566406 107.507812 7.800781 107.3125 8.019531 107.097656 C 8.234375 106.878906 8.429688 106.644531 8.601562 106.386719 C 8.769531 106.132812 8.914062 105.863281 9.03125 105.578125 C 9.148438 105.296875 9.238281 105.003906 9.296875 104.703125 C 9.359375 104.398438 9.386719 104.097656 9.386719 103.789062 Z M 0.0351562 103.789062 "/><path style=" stroke:none;fill-rule:nonzero;fill:#fc6f2f;fill-opacity:1;" d="M 18.742188 99.117188 C 18.742188 98.8125 18.769531 98.507812 18.832031 98.203125 C 18.890625 97.902344 18.980469 97.609375 19.097656 97.324219 C 19.214844 97.039062 19.359375 96.769531 19.527344 96.515625 C 19.699219 96.257812 19.894531 96.023438 20.113281 95.804688 C 20.328125 95.585938 20.566406 95.394531 20.820312 95.222656 C 21.078125 95.050781 21.347656 94.90625 21.632812 94.789062 C 21.917969 94.671875 22.210938 94.582031 22.511719 94.523438 C 22.8125 94.464844 23.117188 94.433594 23.425781 94.433594 L 28.101562 94.433594 L 28.101562 103.789062 L 23.425781 103.789062 C 23.117188 103.789062 22.8125 103.761719 22.511719 103.699219 C 22.210938 103.640625 21.917969 103.550781 21.636719 103.433594 C 21.351562 103.316406 21.082031 103.175781 20.824219 103.003906 C 20.570312 102.835938 20.332031 102.640625 20.117188 102.421875 C 19.898438 102.207031 19.703125 101.972656 19.535156 101.714844 C 19.363281 101.460938 19.21875 101.191406 19.101562 100.90625 C 18.984375 100.625 18.894531 100.332031 18.832031 100.03125 C 18.773438 99.730469 18.742188 99.425781 18.742188 99.117188 Z M 18.742188 99.117188 "/><g clip-rule="nonzero" clip-path="url(#8449277063)"><path style=" stroke:none;fill-rule:nonzero;fill:#fc6f2f;fill-opacity:1;" d="M 28.097656 99.117188 C 28.097656 98.8125 28.125 98.507812 28.1875 98.207031 C 28.246094 97.90625 28.335938 97.613281 28.453125 97.328125 C 28.570312 97.046875 28.714844 96.777344 28.882812 96.519531 C 29.054688 96.265625 29.25 96.027344 29.464844 95.8125 C 29.683594 95.59375 29.917969 95.398438 30.175781 95.230469 C 30.429688 95.058594 30.699219 94.914062 30.984375 94.796875 C 31.265625 94.679688 31.558594 94.589844 31.859375 94.53125 C 32.160156 94.472656 32.464844 94.441406 32.773438 94.441406 L 37.449219 94.441406 L 37.449219 103.796875 L 32.773438 103.796875 C 32.464844 103.796875 32.160156 103.765625 31.859375 103.707031 C 31.558594 103.644531 31.265625 103.558594 30.984375 103.4375 C 30.699219 103.320312 30.429688 103.179688 30.175781 103.007812 C 29.917969 102.835938 29.683594 102.644531 29.464844 102.425781 C 29.25 102.207031 29.054688 101.972656 28.882812 101.71875 C 28.714844 101.460938 28.570312 101.191406 28.453125 100.910156 C 28.335938 100.625 28.246094 100.332031 28.1875 100.03125 C 28.125 99.730469 28.097656 99.425781 28.097656 99.117188 Z M 28.097656 99.117188 "/></g><path style=" stroke:none;fill-rule:nonzero;fill:#1e9446;fill-opacity:1;" d="M 28.097656 103.789062 C 27.789062 103.789062 27.484375 103.820312 27.183594 103.878906 C 26.882812 103.941406 26.589844 104.027344 26.308594 104.144531 C 26.023438 104.261719 25.753906 104.40625 25.5 104.578125 C 25.242188 104.75 25.007812 104.941406 24.789062 105.160156 C 24.574219 105.378906 24.378906 105.613281 24.210938 105.867188 C 24.039062 106.125 23.894531 106.394531 23.777344 106.675781 C 23.660156 106.960938 23.570312 107.253906 23.511719 107.554688 C 23.453125 107.855469 23.421875 108.160156 23.421875 108.464844 C 23.421875 108.773438 23.453125 109.078125 23.511719 109.378906 C 23.570312 109.679688 23.660156 109.972656 23.777344 110.253906 C 23.894531 110.539062 24.039062 110.808594 24.210938 111.0625 C 24.378906 111.320312 24.574219 111.554688 24.789062 111.773438 C 25.007812 111.988281 25.242188 112.183594 25.5 112.355469 C 25.753906 112.523438 26.023438 112.667969 26.308594 112.785156 C 26.589844 112.902344 26.882812 112.992188 27.183594 113.050781 C 27.484375 113.113281 27.789062 113.144531 28.097656 113.144531 Z M 28.097656 103.789062 "/><path style=" stroke:none;fill-rule:nonzero;fill:#fc6f2f;fill-opacity:1;" d="M 0.0351562 117.820312 C 0.0351562 117.511719 0.0625 117.207031 0.125 116.90625 C 0.183594 116.605469 0.273438 116.3125 0.390625 116.03125 C 0.507812 115.746094 0.652344 115.476562 0.824219 115.222656 C 0.992188 114.964844 1.1875 114.730469 1.402344 114.511719 C 1.621094 114.296875 1.855469 114.101562 2.113281 113.929688 C 2.367188 113.761719 2.636719 113.617188 2.921875 113.5 C 3.203125 113.382812 3.496094 113.292969 3.796875 113.234375 C 4.101562 113.171875 4.402344 113.144531 4.710938 113.144531 L 9.386719 113.144531 L 9.386719 122.496094 L 4.710938 122.496094 C 4.402344 122.496094 4.101562 122.46875 3.796875 122.40625 C 3.496094 122.347656 3.203125 122.257812 2.921875 122.140625 C 2.636719 122.023438 2.367188 121.878906 2.113281 121.707031 C 1.855469 121.539062 1.621094 121.34375 1.402344 121.128906 C 1.1875 120.910156 0.992188 120.671875 0.824219 120.417969 C 0.652344 120.164062 0.507812 119.894531 0.390625 119.609375 C 0.273438 119.324219 0.183594 119.035156 0.125 118.730469 C 0.0625 118.429688 0.0351562 118.128906 0.0351562 117.820312 Z M 0.0351562 117.820312 "/><path style=" stroke:none;fill-rule:nonzero;fill:#90298e;fill-opacity:1;" d="M 4.710938 131.851562 C 4.402344 131.851562 4.101562 131.820312 3.796875 131.761719 C 3.496094 131.699219 3.203125 131.613281 2.921875 131.496094 C 2.636719 131.378906 2.367188 131.234375 2.113281 131.0625 C 1.855469 130.890625 1.621094 130.699219 1.402344 130.480469 C 1.1875 130.265625 0.992188 130.027344 0.824219 129.773438 C 0.652344 129.515625 0.507812 129.246094 0.390625 128.964844 C 0.273438 128.679688 0.183594 128.386719 0.125 128.085938 C 0.0625 127.785156 0.0351562 127.480469 0.0351562 127.175781 C 0.0351562 126.867188 0.0625 126.5625 0.125 126.261719 C 0.183594 125.960938 0.273438 125.667969 0.390625 125.382812 C 0.507812 125.101562 0.652344 124.832031 0.824219 124.574219 C 0.992188 124.320312 1.1875 124.082031 1.402344 123.867188 C 1.621094 123.648438 1.855469 123.457031 2.113281 123.285156 C 2.367188 123.113281 2.636719 122.96875 2.921875 122.851562 C 3.203125 122.734375 3.496094 122.648438 3.796875 122.585938 C 4.101562 122.527344 4.402344 122.496094 4.710938 122.496094 C 5.019531 122.496094 5.324219 122.527344 5.625 122.585938 C 5.925781 122.648438 6.21875 122.734375 6.5 122.851562 C 6.785156 122.96875 7.054688 123.113281 7.308594 123.285156 C 7.566406 123.457031 7.800781 123.648438 8.019531 123.867188 C 8.234375 124.082031 8.429688 124.320312 8.601562 124.574219 C 8.769531 124.832031 8.914062 125.101562 9.03125 125.382812 C 9.148438 125.667969 9.238281 125.960938 9.296875 126.261719 C 9.359375 126.5625 9.386719 126.867188 9.386719 127.175781 L 9.386719 131.851562 Z M 4.710938 131.851562 "/><path style=" stroke:none;fill-rule:nonzero;fill:#fc6f2f;fill-opacity:1;" d="M 23.425781 122.496094 C 23.117188 122.496094 22.8125 122.46875 22.511719 122.40625 C 22.210938 122.347656 21.917969 122.257812 21.636719 122.140625 C 21.351562 122.023438 21.082031 121.878906 20.828125 121.707031 C 20.570312 121.539062 20.335938 121.34375 20.117188 121.128906 C 19.902344 120.910156 19.707031 120.671875 19.535156 120.417969 C 19.367188 120.164062 19.222656 119.894531 19.105469 119.609375 C 18.988281 119.324219 18.898438 119.035156 18.839844 118.730469 C 18.777344 118.429688 18.75 118.128906 18.75 117.820312 L 18.75 113.144531 L 28.101562 113.144531 L 28.101562 117.820312 C 28.101562 118.128906 28.074219 118.429688 28.011719 118.730469 C 27.953125 119.035156 27.863281 119.324219 27.746094 119.609375 C 27.628906 119.894531 27.484375 120.164062 27.3125 120.417969 C 27.144531 120.671875 26.949219 120.910156 26.734375 121.128906 C 26.515625 121.34375 26.277344 121.539062 26.023438 121.707031 C 25.769531 121.878906 25.5 122.023438 25.214844 122.140625 C 24.929688 122.257812 24.640625 122.347656 24.335938 122.40625 C 24.035156 122.46875 23.734375 122.496094 23.425781 122.496094 Z M 23.425781 122.496094 "/><path style=" stroke:none;fill-rule:nonzero;fill:#1e9446;fill-opacity:1;" d="M 18.742188 122.496094 C 18.742188 122.804688 18.773438 123.109375 18.832031 123.410156 C 18.890625 123.710938 18.980469 124.003906 19.097656 124.285156 C 19.214844 124.570312 19.359375 124.839844 19.53125 125.09375 C 19.699219 125.351562 19.894531 125.585938 20.113281 125.804688 C 20.328125 126.019531 20.566406 126.214844 20.820312 126.386719 C 21.074219 126.554688 21.34375 126.699219 21.628906 126.816406 C 21.914062 126.933594 22.207031 127.023438 22.507812 127.085938 C 22.808594 127.144531 23.113281 127.175781 23.417969 127.175781 C 23.726562 127.175781 24.03125 127.144531 24.332031 127.085938 C 24.632812 127.023438 24.925781 126.933594 25.207031 126.816406 C 25.492188 126.699219 25.761719 126.554688 26.015625 126.386719 C 26.273438 126.214844 26.507812 126.019531 26.726562 125.804688 C 26.941406 125.585938 27.136719 125.351562 27.308594 125.09375 C 27.476562 124.839844 27.621094 124.570312 27.738281 124.285156 C 27.859375 124.003906 27.945312 123.710938 28.007812 123.410156 C 28.066406 123.109375 28.097656 122.804688 28.097656 122.496094 Z M 18.742188 122.496094 "/><g clip-rule="nonzero" clip-path="url(#379d7ff02c)"><path style=" stroke:none;fill-rule:nonzero;fill:#fc6f2f;fill-opacity:1;" d="M 28.097656 131.851562 C 28.710938 131.851562 29.316406 131.789062 29.921875 131.671875 C 30.523438 131.550781 31.109375 131.375 31.675781 131.136719 C 32.242188 130.902344 32.78125 130.617188 33.292969 130.273438 C 33.804688 129.933594 34.277344 129.546875 34.710938 129.109375 C 35.144531 128.675781 35.53125 128.203125 35.875 127.695312 C 36.214844 127.183594 36.503906 126.644531 36.738281 126.078125 C 36.972656 125.507812 37.148438 124.925781 37.269531 124.320312 C 37.390625 123.71875 37.449219 123.109375 37.449219 122.496094 L 28.097656 122.496094 Z M 28.097656 131.851562 "/></g><path style=" stroke:none;fill-rule:nonzero;fill:#fc6f2f;fill-opacity:1;" d="M 9.386719 136.527344 C 9.386719 136.835938 9.359375 137.140625 9.296875 137.441406 C 9.238281 137.742188 9.148438 138.035156 9.03125 138.316406 C 8.914062 138.601562 8.769531 138.871094 8.601562 139.125 C 8.429688 139.382812 8.234375 139.617188 8.019531 139.835938 C 7.800781 140.050781 7.566406 140.246094 7.308594 140.417969 C 7.054688 140.585938 6.785156 140.730469 6.5 140.847656 C 6.21875 140.964844 5.925781 141.054688 5.625 141.113281 C 5.324219 141.175781 5.019531 141.203125 4.710938 141.203125 L 0.0351562 141.203125 L 0.0351562 131.851562 L 4.710938 131.851562 C 5.019531 131.851562 5.324219 131.878906 5.625 131.941406 C 5.925781 132 6.21875 132.089844 6.5 132.207031 C 6.785156 132.324219 7.054688 132.46875 7.308594 132.640625 C 7.566406 132.808594 7.800781 133.003906 8.019531 133.222656 C 8.234375 133.4375 8.429688 133.675781 8.601562 133.929688 C 8.769531 134.183594 8.914062 134.453125 9.03125 134.738281 C 9.148438 135.023438 9.238281 135.3125 9.296875 135.617188 C 9.359375 135.917969 9.386719 136.222656 9.386719 136.527344 Z M 9.386719 136.527344 "/><path style=" stroke:none;fill-rule:nonzero;fill:#fc6f2f;fill-opacity:1;" d="M 18.742188 136.527344 C 18.742188 136.835938 18.710938 137.140625 18.652344 137.441406 C 18.59375 137.742188 18.503906 138.035156 18.386719 138.316406 C 18.269531 138.601562 18.125 138.871094 17.953125 139.125 C 17.78125 139.382812 17.589844 139.617188 17.371094 139.835938 C 17.15625 140.050781 16.917969 140.246094 16.664062 140.417969 C 16.40625 140.585938 16.136719 140.730469 15.855469 140.847656 C 15.570312 140.964844 15.277344 141.054688 14.976562 141.113281 C 14.675781 141.175781 14.371094 141.203125 14.066406 141.203125 L 9.386719 141.203125 L 9.386719 131.851562 L 14.066406 131.851562 C 14.371094 131.851562 14.675781 131.878906 14.976562 131.941406 C 15.277344 132 15.570312 132.089844 15.855469 132.207031 C 16.136719 132.324219 16.40625 132.46875 16.664062 132.640625 C 16.917969 132.808594 17.15625 133.003906 17.371094 133.222656 C 17.589844 133.4375 17.78125 133.675781 17.953125 133.929688 C 18.125 134.183594 18.269531 134.453125 18.386719 134.738281 C 18.503906 135.023438 18.59375 135.3125 18.652344 135.617188 C 18.710938 135.917969 18.742188 136.222656 18.742188 136.527344 Z M 18.742188 136.527344 "/><g clip-rule="nonzero" clip-path="url(#57a4ec6d15)"><path style=" stroke:none;fill-rule:nonzero;fill:#90298e;fill-opacity:1;" d="M 4.710938 150.554688 C 4.402344 150.554688 4.101562 150.523438 3.796875 150.464844 C 3.496094 150.402344 3.203125 150.316406 2.921875 150.199219 C 2.636719 150.078125 2.367188 149.9375 2.113281 149.765625 C 1.855469 149.59375 1.621094 149.402344 1.402344 149.183594 C 1.1875 148.964844 0.992188 148.730469 0.824219 148.476562 C 0.652344 148.21875 0.507812 147.949219 0.390625 147.667969 C 0.273438 147.382812 0.183594 147.089844 0.125 146.789062 C 0.0625 146.488281 0.0351562 146.183594 0.0351562 145.875 C 0.0351562 145.570312 0.0625 145.265625 0.125 144.964844 C 0.183594 144.664062 0.273438 144.371094 0.390625 144.085938 C 0.507812 143.804688 0.652344 143.535156 0.824219 143.277344 C 0.992188 143.023438 1.1875 142.785156 1.402344 142.570312 C 1.621094 142.351562 1.855469 142.160156 2.113281 141.988281 C 2.367188 141.816406 2.636719 141.671875 2.921875 141.554688 C 3.203125 141.4375 3.496094 141.347656 3.796875 141.289062 C 4.101562 141.230469 4.402344 141.199219 4.710938 141.199219 C 5.019531 141.199219 5.324219 141.230469 5.625 141.289062 C 5.925781 141.347656 6.21875 141.4375 6.5 141.554688 C 6.785156 141.671875 7.054688 141.816406 7.308594 141.988281 C 7.566406 142.160156 7.800781 142.351562 8.019531 142.570312 C 8.234375 142.785156 8.429688 143.023438 8.601562 143.277344 C 8.769531 143.535156 8.914062 143.804688 9.03125 144.085938 C 9.148438 144.371094 9.238281 144.664062 9.296875 144.964844 C 9.359375 145.265625 9.386719 145.570312 9.386719 145.875 L 9.386719 150.554688 Z M 4.710938 150.554688 "/></g><g clip-rule="nonzero" clip-path="url(#39940196fb)"><path style=" stroke:none;fill-rule:nonzero;fill:#90298e;fill-opacity:1;" d="M 28.097656 145.882812 C 28.097656 146.1875 28.066406 146.492188 28.007812 146.792969 C 27.945312 147.097656 27.855469 147.386719 27.738281 147.671875 C 27.621094 147.957031 27.476562 148.226562 27.308594 148.480469 C 27.136719 148.734375 26.941406 148.972656 26.726562 149.191406 C 26.507812 149.40625 26.273438 149.601562 26.015625 149.769531 C 25.761719 149.941406 25.492188 150.085938 25.207031 150.203125 C 24.921875 150.320312 24.628906 150.410156 24.328125 150.46875 C 24.027344 150.527344 23.722656 150.558594 23.417969 150.558594 C 23.109375 150.558594 22.804688 150.527344 22.503906 150.46875 C 22.203125 150.410156 21.910156 150.320312 21.625 150.203125 C 21.34375 150.085938 21.074219 149.941406 20.816406 149.769531 C 20.5625 149.597656 20.328125 149.402344 20.109375 149.1875 C 19.890625 148.96875 19.699219 148.734375 19.527344 148.476562 C 19.359375 148.222656 19.214844 147.953125 19.097656 147.667969 C 18.980469 147.382812 18.890625 147.089844 18.832031 146.789062 C 18.769531 146.488281 18.742188 146.183594 18.742188 145.878906 C 18.742188 145.570312 18.773438 145.265625 18.832031 144.964844 C 18.894531 144.664062 18.980469 144.371094 19.101562 144.085938 C 19.21875 143.804688 19.363281 143.535156 19.53125 143.277344 C 19.703125 143.023438 19.898438 142.789062 20.117188 142.570312 C 20.332031 142.355469 20.570312 142.160156 20.824219 141.988281 C 21.082031 141.820312 21.351562 141.675781 21.632812 141.558594 C 21.917969 141.441406 22.210938 141.351562 22.511719 141.292969 C 22.8125 141.234375 23.117188 141.203125 23.425781 141.203125 L 28.101562 141.203125 Z M 28.097656 145.882812 "/></g><g clip-rule="nonzero" clip-path="url(#01a4e5df9e)"><path style=" stroke:none;fill-rule:nonzero;fill:#fc6f2f;fill-opacity:1;" d="M 28.097656 141.203125 C 28.097656 141.820312 28.15625 142.425781 28.277344 143.027344 C 28.398438 143.632812 28.574219 144.214844 28.808594 144.78125 C 29.046875 145.351562 29.332031 145.886719 29.675781 146.398438 C 30.015625 146.910156 30.402344 147.382812 30.835938 147.816406 C 31.273438 148.25 31.746094 148.636719 32.253906 148.976562 C 32.765625 149.320312 33.304688 149.605469 33.871094 149.839844 C 34.4375 150.078125 35.023438 150.253906 35.625 150.375 C 36.226562 150.492188 36.835938 150.554688 37.449219 150.554688 L 37.449219 141.203125 Z M 28.097656 141.203125 "/></g></g></svg>